<mxfile host="app.diagrams.net" modified="2021-10-30T07:08:01.462Z" agent="5.0 (Macintosh; Intel Mac OS X 10_15_7) AppleWebKit/605.1.15 (KHTML, like Gecko) Version/14.1.2 Safari/605.1.15" etag="rMJcZjPA72JfNUilzHO1" version="15.6.2" type="github">
  <diagram name="Page-1" id="7e0a89b8-554c-2b80-1dc8-d5c74ca68de4">
    <mxGraphModel dx="926" dy="571" grid="1" gridSize="10" guides="1" tooltips="1" connect="1" arrows="1" fold="1" page="1" pageScale="1" pageWidth="1100" pageHeight="850" background="none" math="0" shadow="0">
      <root>
        <mxCell id="0" />
        <mxCell id="1" parent="0" />
        <mxCell id="GF4HHl8ey6XTvWXWg5Qq-2" value="" style="shape=image;verticalLabelPosition=bottom;verticalAlign=top;imageAspect=0;aspect=fixed;image=data:image/svg+xml,PHN2ZyB4bWxucz0iaHR0cDovL3d3dy53My5vcmcvMjAwMC9zdmciIHhtbG5zOnhsaW5rPSJodHRwOi8vd3d3LnczLm9yZy8xOTk5L3hsaW5rIiB2ZXJzaW9uPSIxLjEiIGlkPSJDYXBhXzEiIHg9IjBweCIgeT0iMHB4IiB2aWV3Qm94PSIwIDAgMzEuMDU5OTk1NjUxMjQ1MTE3IDMxLjA1OTk5OTQ2NTk0MjM4MyIgc3R5bGU9ImVuYWJsZS1iYWNrZ3JvdW5kOm5ldyAwIDAgMzEuMDYgMzEuMDY7IiB4bWw6c3BhY2U9InByZXNlcnZlIiB3aWR0aD0iMzEuMDU5OTk1NjUxMjQ1MTE3IiBoZWlnaHQ9IjMxLjA1OTk5OTQ2NTk0MjM4MyI+JiN4YTs8Zz4mI3hhOwk8Zz4mI3hhOwkJPHBhdGggc3R5bGU9ImZpbGw6IzAxMDAwMjsiIGQ9Ik0xOC44LDMxLjA2TDE4LjgsMzEuMDZsLTYuNTQxLTAuMDAxYy0wLjQ5LDAtMC44ODgtMC4zOTctMC44ODgtMC44ODh2LTIuNTc2JiN4YTsgICBjLTAuNDktMC4xNjktMC45NjktMC4zNjctMS40MzQtMC41OTNsLTEuODIxLDEuODIxYy0wLjE2NywwLjE2Ny0wLjM5MywwLjI2MS0wLjYyOCwwLjI2MWwwLDBjLTAuMjM1LDAtMC40NjEtMC4wOTQtMC42MjctMC4yNjEmI3hhOyAgIGwtNC42MjUtNC42MjVjLTAuMzQ3LTAuMzQ3LTAuMzQ3LTAuOTA4LDAtMS4yNTVsMS44MjEtMS44MjJjLTAuMjI3LTAuNDY0LTAuNDI1LTAuOTQzLTAuNTk0LTEuNDM0SDAuODg3JiN4YTsgICBjLTAuMjM1LDAtMC40NjEtMC4wOTQtMC42MjctMC4yNmMtMC4xNjctMC4xNjYtMC4yNi0wLjM5My0wLjI2LTAuNjI3di02LjU0MmMwLTAuNDg5LDAuMzk3LTAuODg3LDAuODg4LTAuODg3aDIuNTc2JiN4YTsgICBjMC4xNjktMC40OSwwLjM2Ny0wLjk2OSwwLjU5NC0xLjQzNEwyLjIzNiw4LjExNkMyLjA3LDcuOTUsMS45NzYsNy43MjUsMS45NzYsNy40ODljMC0wLjIzNSwwLjA5NC0wLjQ2MSwwLjI2LTAuNjI4bDQuNjI2LTQuNjI1JiN4YTsgICBjMC4xNjYtMC4xNjcsMC4zOTItMC4yNiwwLjYyNy0wLjI2bDAsMGMwLjIzNSwwLDAuNDYxLDAuMDkzLDAuNjI4LDAuMjZsMS44MjEsMS44MjFjMC40NjQtMC4yMjcsMC45NDMtMC40MjUsMS40MzQtMC41OTNWMC44ODgmI3hhOyAgIGMwLTAuNDksMC4zOTctMC44ODgsMC44ODgtMC44ODhIMTguOGMwLjQ5LDAsMC44ODcsMC4zOTgsMC44ODcsMC44ODh2Mi41NzdjMC40OSwwLjE2OCwwLjk3LDAuMzY2LDEuNDM1LDAuNTkzbDEuODIxLTEuODIxJiN4YTsgICBjMC4zNDctMC4zNDcsMC45MDgtMC4zNDcsMS4yNTUsMC4wMDFsNC42MjYsNC42MjVjMC4xNjYsMC4xNjYsMC4yNiwwLjM5MiwwLjI2LDAuNjI3YzAsMC4yMzUtMC4wOTQsMC40NjEtMC4yNiwwLjYyOCYjeGE7ICAgbC0xLjgyMiwxLjgyMWMwLjIyNywwLjQ2NSwwLjQyNSwwLjk0MywwLjU5NCwxLjQzNGgyLjU3NmMwLjQ5LDAsMC44ODgsMC4zOTcsMC44ODgsMC44ODh2Ni41NDFjMCwwLjIzNS0wLjA5NCwwLjQ2MS0wLjI2LDAuNjI3JiN4YTsgICBjLTAuMTY3LDAuMTY3LTAuMzkzLDAuMjYtMC42MjgsMC4yNmwwLDBoLTIuNTc2Yy0wLjE2OSwwLjQ5LTAuMzY3LDAuOTctMC41OTQsMS40MzRsMS44MjIsMS44MjJjMC4zNDcsMC4zNDYsMC4zNDcsMC45MDgsMCwxLjI1NSYjeGE7ICAgbC00LjYyNiw0LjYyNWMtMC4xNjYsMC4xNjctMC4zOTIsMC4yNi0wLjYyNywwLjI2bDAsMGMtMC4yMzUsMC0wLjQ2MS0wLjA5NC0wLjYyOC0wLjI2bC0xLjgyMS0xLjgyMSYjeGE7ICAgYy0wLjQ2NSwwLjIyNy0wLjk0NCwwLjQyNS0xLjQzNCwwLjU5M3YyLjU3N2MwLDAuMjM1LTAuMDk0LDAuNDYxLTAuMjYsMC42MjdDMTkuMjYyLDMwLjk2NiwxOS4wMzcsMzEuMDYsMTguOCwzMS4wNnomI3hhOyAgICBNMTMuMTQ2LDI5LjI4NGg0Ljc2N3YtMi4zNGMwLTAuMzk2LDAuMjYzLTAuNzQ1LDAuNjQ0LTAuODU0YzAuODAxLTAuMjI4LDEuNTc1LTAuNTQ5LDIuMzAxLTAuOTUyJiN4YTsgICBjMC4zNDctMC4xOTIsMC43NzktMC4xMzIsMS4wNTksMC4xNDdsMS42NTQsMS42NTRsMy4zNy0zLjM3bC0xLjY1NC0xLjY1NGMtMC4yNzktMC4yOC0wLjM0MS0wLjcxMi0wLjE0OC0xLjA1OSYjeGE7ICAgYzAuNDAzLTAuNzI1LDAuNzI0LTEuNDk5LDAuOTUzLTIuMzAxYzAuMTA4LTAuMzgxLDAuNDU3LTAuNjQ0LDAuODUzLTAuNjQ0bDAsMGgyLjM0MXYtNC43NjdoLTIuMzQxJiN4YTsgICBjLTAuMzk2LDAtMC43NDQtMC4yNjMtMC44NTMtMC42NDRjLTAuMjI5LTAuODAzLTAuNTUtMS41NzYtMC45NTMtMi4zMDFjLTAuMTkyLTAuMzQ3LTAuMTMxLTAuNzc5LDAuMTQ4LTEuMDU5bDEuNjU0LTEuNjU0JiN4YTsgICBsLTMuMzctMy4zN2wtMS42NTQsMS42NTRjLTAuMjgsMC4yOC0wLjcxMiwwLjM0LTEuMDU5LDAuMTQ4Yy0wLjcyNi0wLjQwMi0xLjUtMC43MjMtMi4zMDItMC45NTMmI3hhOyAgIGMtMC4zODEtMC4xMDgtMC42NDQtMC40NTYtMC42NDQtMC44NTN2LTIuMzRoLTQuNzY3djIuMzRjMCwwLjM5Ny0wLjI2MywwLjc0NC0wLjY0MywwLjg1M2MtMC44MDQsMC4yMy0xLjU3OCwwLjU1MS0yLjMwMiwwLjk1MyYjeGE7ICAgQzkuODU2LDYuMTEzLDkuNDIzLDYuMDU0LDkuMTQzLDUuNzczTDcuNDg5LDQuMTE4bC0zLjM3LDMuMzcxbDEuNjU0LDEuNjU0YzAuMjgsMC4yNzksMC4zNDEsMC43MTIsMC4xNDgsMS4wNTkmI3hhOyAgIGMtMC40MDMsMC43MjUtMC43MjQsMS40OTgtMC45NTMsMi4zMDFjLTAuMTA4LDAuMzgxLTAuNDU3LDAuNjQ0LTAuODUzLDAuNjQ0aC0yLjM0bC0wLjAwMSw0Ljc2N2gyLjM0MSYjeGE7ICAgYzAuMzk2LDAsMC43NDQsMC4yNjMsMC44NTMsMC42NDRjMC4yMjksMC44MDMsMC41NSwxLjU3NywwLjk1MywyLjMwMmMwLjE5MiwwLjM0NiwwLjEzMiwwLjc3Ny0wLjE0OCwxLjA1OEw0LjExOSwyMy41NyYjeGE7ICAgbDMuMzcsMy4zNzFsMS42NTUtMS42NTVjMC4yNzktMC4yNzksMC43MTEtMC4zNCwxLjA1OS0wLjE0N2MwLjcyNCwwLjQwMiwxLjQ5OCwwLjcyMywyLjMwMSwwLjk1MiYjeGE7ICAgYzAuMzgxLDAuMTA5LDAuNjQzLDAuNDU3LDAuNjQzLDAuODU0VjI5LjI4NHoiLz4mI3hhOwk8L2c+JiN4YTsJPGc+JiN4YTsJCTxwYXRoIHN0eWxlPSJmaWxsOiMwMTAwMDI7IiBkPSJNMTUuNTMsMjIuMjczYy0zLjcxOSwwLTYuNzQ0LTMuMDI1LTYuNzQ0LTYuNzQ0YzAtMy43MTksMy4wMjUtNi43NDQsNi43NDQtNi43NDQmI3hhOyAgIGMzLjcxOSwwLDYuNzQ0LDMuMDI1LDYuNzQ0LDYuNzQ0QzIyLjI3NCwxOS4yNDgsMTkuMjQ5LDIyLjI3MywxNS41MywyMi4yNzN6IE0xNS41MywxMC41NjFjLTIuNzQsMC00Ljk2OSwyLjIyOS00Ljk2OSw0Ljk2OSYjeGE7ICAgYzAsMi43NDEsMi4yMjksNC45Nyw0Ljk2OSw0Ljk3YzIuNzQsMCw0Ljk3LTIuMjI5LDQuOTctNC45N0MyMC41LDEyLjc5LDE4LjI3LDEwLjU2MSwxNS41MywxMC41NjF6Ii8+JiN4YTsJPC9nPiYjeGE7PC9nPiYjeGE7PGc+JiN4YTs8L2c+JiN4YTs8Zz4mI3hhOzwvZz4mI3hhOzxnPiYjeGE7PC9nPiYjeGE7PGc+JiN4YTs8L2c+JiN4YTs8Zz4mI3hhOzwvZz4mI3hhOzxnPiYjeGE7PC9nPiYjeGE7PGc+JiN4YTs8L2c+JiN4YTs8Zz4mI3hhOzwvZz4mI3hhOzxnPiYjeGE7PC9nPiYjeGE7PGc+JiN4YTs8L2c+JiN4YTs8Zz4mI3hhOzwvZz4mI3hhOzxnPiYjeGE7PC9nPiYjeGE7PGc+JiN4YTs8L2c+JiN4YTs8Zz4mI3hhOzwvZz4mI3hhOzxnPiYjeGE7PC9nPiYjeGE7PC9zdmc+" vertex="1" parent="1">
          <mxGeometry x="220" y="140" width="70" height="70" as="geometry" />
        </mxCell>
      </root>
    </mxGraphModel>
  </diagram>
</mxfile>
